<?xml version="1.0" encoding="UTF-8"?>
<svg xmlns="http://www.w3.org/2000/svg" xmlns:xlink="http://www.w3.org/1999/xlink" width="40px" height="40px" viewBox="0 0 40 40" version="1.1">
<g id="surface1">
<path style=" stroke:none;fill-rule:nonzero;fill:rgb(94.509804%,25.490196%,41.568627%);fill-opacity:1;" d="M 20 2.398438 C 10.28125 2.398438 2.398438 10.28125 2.398438 20 C 2.398438 28.824219 8.898438 36.109375 17.371094 37.382812 L 17.371094 24.664062 L 13.015625 24.664062 L 13.015625 20.039062 L 17.371094 20.039062 L 17.371094 16.960938 C 17.371094 11.863281 19.851562 9.625 24.089844 9.625 C 26.117188 9.625 27.191406 9.777344 27.699219 9.84375 L 27.699219 13.882812 L 24.808594 13.882812 C 23.011719 13.882812 22.382812 15.589844 22.382812 17.507812 L 22.382812 20.039062 L 27.652344 20.039062 L 26.9375 24.664062 L 22.382812 24.664062 L 22.382812 37.421875 C 30.972656 36.253906 37.601562 28.910156 37.601562 20 C 37.601562 10.28125 29.71875 2.398438 20 2.398438 Z M 20 2.398438 "/>
</g>
</svg>
