<svg xmlns="http://www.w3.org/2000/svg" xmlns:xlink="http://www.w3.org/1999/xlink" width="500" zoomAndPan="magnify" viewBox="0 0 375 374.999991" height="500" preserveAspectRatio="xMidYMid meet" version="1.0"><path fill="#fedb41" d="M 375 276.125 C 375 294.359375 360.277344 309.085938 342.042969 309.085938 L 275.390625 309.085938 C 269.238281 309.085938 264.40625 304.246094 264.40625 298.097656 C 264.40625 291.941406 269.238281 287.113281 275.390625 287.113281 L 342.042969 287.113281 C 348.195312 287.113281 353.027344 282.273438 353.027344 276.125 C 353.027344 269.96875 348.195312 265.140625 342.042969 265.140625 L 209.472656 265.140625 C 200.90625 265.140625 193.210938 261.839844 187.5 256.5625 C 180.6875 250.636719 176.515625 241.84375 176.515625 232.179688 L 176.515625 188.234375 C 176.515625 182.078125 181.347656 177.25 187.5 177.25 C 193.652344 177.25 198.488281 182.078125 198.488281 188.234375 L 198.488281 232.179688 C 198.488281 238.328125 203.320312 243.167969 209.472656 243.167969 L 342.042969 243.167969 C 360.277344 243.167969 375 257.882812 375 276.125 Z M 375 276.125 " fill-opacity="1" fill-rule="nonzero"/><path fill="#fcbf29" d="M 209.472656 265.140625 C 200.90625 265.140625 193.210938 261.839844 187.5 256.5625 L 187.5 177.25 C 193.652344 177.25 198.488281 182.078125 198.488281 188.234375 L 198.488281 232.179688 C 198.488281 238.328125 203.320312 243.167969 209.472656 243.167969 L 342.042969 243.167969 C 360.277344 243.167969 375 257.882812 375 276.125 C 375 294.359375 360.277344 309.085938 342.042969 309.085938 L 275.390625 309.085938 C 269.238281 309.085938 264.40625 304.246094 264.40625 298.097656 C 264.40625 291.941406 269.238281 287.113281 275.390625 287.113281 L 342.042969 287.113281 C 348.195312 287.113281 353.027344 282.273438 353.027344 276.125 C 353.027344 269.96875 348.195312 265.140625 342.042969 265.140625 Z M 209.472656 265.140625 " fill-opacity="1" fill-rule="nonzero"/><path fill="#c5c9f7" d="M 242.433594 133.304688 L 195.851562 189.113281 C 193.652344 191.746094 190.578125 193.0625 187.5 193.0625 C 184.425781 193.0625 181.347656 191.746094 179.148438 189.113281 L 132.570312 133.304688 L 143.554688 110.59375 L 221.777344 110.59375 Z M 242.433594 133.304688 " fill-opacity="1" fill-rule="nonzero"/><path fill="#a8aff1" d="M 195.851562 189.113281 C 193.652344 191.746094 190.578125 193.0625 187.5 193.0625 L 187.5 110.59375 L 221.777344 110.59375 L 242.433594 133.304688 Z M 195.851562 189.113281 " fill-opacity="1" fill-rule="nonzero"/><path fill="#e1e4fb" d="M 132.570312 133.304688 L 242.433594 133.304688 L 242.433594 66.648438 L 132.570312 66.648438 Z M 132.570312 133.304688 " fill-opacity="1" fill-rule="nonzero"/><path fill="#c5c9f7" d="M 187.5 133.304688 L 242.433594 133.304688 L 242.433594 66.648438 L 187.5 66.648438 Z M 187.5 133.304688 " fill-opacity="1" fill-rule="nonzero"/><path fill="#7986e8" d="M 253.417969 0 L 121.582031 0 C 115.429688 0 110.597656 4.832031 110.597656 10.984375 L 110.597656 55.664062 C 110.597656 73.902344 125.316406 88.621094 143.554688 88.621094 L 231.445312 88.621094 C 249.683594 88.621094 264.40625 73.902344 264.40625 55.664062 L 264.40625 10.984375 C 264.40625 4.832031 259.570312 0 253.417969 0 Z M 253.417969 0 " fill-opacity="1" fill-rule="nonzero"/><path fill="#007bff" d="M 330.324219 10.984375 C 330.324219 17.140625 325.488281 21.972656 319.335938 21.972656 L 55.664062 21.972656 C 49.511719 21.972656 44.679688 17.140625 44.679688 10.984375 C 44.679688 4.832031 49.511719 0 55.664062 0 L 319.335938 0 C 325.488281 0 330.324219 4.832031 330.324219 10.984375 Z M 330.324219 10.984375 " fill-opacity="1" fill-rule="nonzero"/><path fill="#fea832" d="M 375 309.085938 C 375 321.167969 365.113281 331.058594 353.027344 331.058594 L 21.972656 331.058594 C 9.886719 331.058594 0 321.167969 0 309.085938 C 0 296.996094 9.886719 287.113281 21.972656 287.113281 L 353.027344 287.113281 C 365.113281 287.113281 375 296.996094 375 309.085938 Z M 375 309.085938 " fill-opacity="1" fill-rule="nonzero"/><path fill="#fedb41" d="M 375 353.03125 C 375 365.113281 365.113281 375 353.027344 375 L 21.972656 375 C 9.886719 375 0 365.113281 0 353.03125 C 0 340.941406 9.886719 331.058594 21.972656 331.058594 L 353.027344 331.058594 C 365.113281 331.058594 375 340.941406 375 353.03125 Z M 375 353.03125 " fill-opacity="1" fill-rule="nonzero"/><path fill="#6e77e5" d="M 231.445312 88.621094 L 187.5 88.621094 L 187.5 0 L 253.417969 0 C 259.570312 0 264.40625 4.832031 264.40625 10.984375 L 264.40625 55.664062 C 264.40625 73.902344 249.683594 88.621094 231.445312 88.621094 Z M 231.445312 88.621094 " fill-opacity="1" fill-rule="nonzero"/><path fill="#fe9923" d="M 375 309.085938 C 375 321.167969 365.113281 331.058594 353.027344 331.058594 L 187.5 331.058594 L 187.5 287.113281 L 353.027344 287.113281 C 365.113281 287.113281 375 296.996094 375 309.085938 Z M 375 309.085938 " fill-opacity="1" fill-rule="nonzero"/><path fill="#0050c7" d="M 319.335938 21.972656 L 187.5 21.972656 L 187.5 0 L 319.335938 0 C 325.488281 0 330.324219 4.832031 330.324219 10.984375 C 330.324219 17.140625 325.488281 21.972656 319.335938 21.972656 Z M 319.335938 21.972656 " fill-opacity="1" fill-rule="nonzero"/><path fill="#fcbf29" d="M 375 353.03125 C 375 365.113281 365.113281 375 353.027344 375 L 187.5 375 L 187.5 331.058594 L 353.027344 331.058594 C 365.113281 331.058594 375 340.941406 375 353.03125 Z M 375 353.03125 " fill-opacity="1" fill-rule="nonzero"/></svg>