<svg xmlns="http://www.w3.org/2000/svg" xmlns:xlink="http://www.w3.org/1999/xlink" width="500" zoomAndPan="magnify" viewBox="0 0 375 374.999991" height="500" preserveAspectRatio="xMidYMid meet" version="1.0"><defs><g/></defs><g fill="#004aad" fill-opacity="0.302"><g transform="translate(37.47967, 263.116305)"><g><path d="M 9.546875 0 L 89.472656 0 L 89.472656 -15.542969 L 58.613281 -15.542969 L 58.613281 -150.082031 C 58.613281 -160.515625 53.726562 -166.289062 43.515625 -165.402344 L 17.761719 -163.179688 L 17.761719 -147.640625 L 40.628906 -149.636719 L 40.628906 -15.542969 L 9.546875 -15.542969 Z M 9.546875 0 "/></g></g></g><g fill="#004aad" fill-opacity="0.302"><g transform="translate(134.500065, 263.116305)"><g><path d="M 47.511719 -13.097656 L 47.511719 -94.800781 L 81.921875 -94.800781 L 81.921875 -110.339844 L 47.511719 -110.339844 L 47.511719 -144.308594 L 29.527344 -138.757812 L 29.527344 -110.339844 L 5.105469 -110.339844 L 5.105469 -94.800781 L 29.527344 -94.800781 L 29.527344 -12.875 C 29.527344 -2.664062 34.191406 2.886719 44.625 2.21875 L 86.363281 0 L 86.363281 -15.542969 Z M 47.511719 -13.097656 "/></g></g></g><g fill="#004aad" fill-opacity="0.302"><g transform="translate(230.632398, 263.116305)"><g><path d="M 129.433594 0 L 129.433594 -163.179688 L 111.230469 -163.179688 L 111.230469 -94.132812 L 114.335938 -81.480469 L 109.007812 -81.480469 C 104.347656 -98.796875 89.472656 -112.5625 64.382812 -112.5625 C 32.414062 -112.5625 11.765625 -87.917969 11.765625 -55.28125 C 11.765625 -22.421875 32.414062 2.21875 64.382812 2.21875 C 89.472656 2.21875 104.347656 -11.542969 109.007812 -28.640625 L 114.335938 -28.640625 L 111.230469 -16.207031 L 111.230469 0 Z M 111.230469 -55.28125 C 111.230469 -25.753906 92.582031 -13.320312 69.710938 -13.320312 C 46.84375 -13.320312 29.972656 -25.753906 29.972656 -55.28125 C 29.972656 -84.585938 46.84375 -97.019531 69.710938 -97.019531 C 92.582031 -97.019531 111.230469 -84.585938 111.230469 -55.28125 Z M 111.230469 -55.28125 "/></g></g></g><g fill="#004aad" fill-opacity="0.502"><g transform="translate(27.667735, 253.304369)"><g><path d="M 9.546875 0 L 89.472656 0 L 89.472656 -15.542969 L 58.613281 -15.542969 L 58.613281 -150.082031 C 58.613281 -160.515625 53.726562 -166.289062 43.515625 -165.402344 L 17.761719 -163.179688 L 17.761719 -147.640625 L 40.628906 -149.636719 L 40.628906 -15.542969 L 9.546875 -15.542969 Z M 9.546875 0 "/></g></g></g><g fill="#004aad" fill-opacity="0.502"><g transform="translate(124.68813, 253.304369)"><g><path d="M 47.511719 -13.097656 L 47.511719 -94.800781 L 81.921875 -94.800781 L 81.921875 -110.339844 L 47.511719 -110.339844 L 47.511719 -144.308594 L 29.527344 -138.757812 L 29.527344 -110.339844 L 5.105469 -110.339844 L 5.105469 -94.800781 L 29.527344 -94.800781 L 29.527344 -12.875 C 29.527344 -2.664062 34.191406 2.886719 44.625 2.21875 L 86.363281 0 L 86.363281 -15.542969 Z M 47.511719 -13.097656 "/></g></g></g><g fill="#004aad" fill-opacity="0.502"><g transform="translate(220.820463, 253.304369)"><g><path d="M 129.433594 0 L 129.433594 -163.179688 L 111.230469 -163.179688 L 111.230469 -94.132812 L 114.335938 -81.480469 L 109.007812 -81.480469 C 104.347656 -98.796875 89.472656 -112.5625 64.382812 -112.5625 C 32.414062 -112.5625 11.765625 -87.917969 11.765625 -55.28125 C 11.765625 -22.421875 32.414062 2.21875 64.382812 2.21875 C 89.472656 2.21875 104.347656 -11.542969 109.007812 -28.640625 L 114.335938 -28.640625 L 111.230469 -16.207031 L 111.230469 0 Z M 111.230469 -55.28125 C 111.230469 -25.753906 92.582031 -13.320312 69.710938 -13.320312 C 46.84375 -13.320312 29.972656 -25.753906 29.972656 -55.28125 C 29.972656 -84.585938 46.84375 -97.019531 69.710938 -97.019531 C 92.582031 -97.019531 111.230469 -84.585938 111.230469 -55.28125 Z M 111.230469 -55.28125 "/></g></g></g><g fill="#000000" fill-opacity="1"><g transform="translate(17.8558, 243.492435)"><g><path d="M 9.546875 0 L 89.472656 0 L 89.472656 -15.542969 L 58.613281 -15.542969 L 58.613281 -150.082031 C 58.613281 -160.515625 53.726562 -166.289062 43.515625 -165.402344 L 17.761719 -163.179688 L 17.761719 -147.640625 L 40.628906 -149.636719 L 40.628906 -15.542969 L 9.546875 -15.542969 Z M 9.546875 0 "/></g></g></g><g fill="#000000" fill-opacity="1"><g transform="translate(114.876195, 243.492435)"><g><path d="M 47.511719 -13.097656 L 47.511719 -94.800781 L 81.921875 -94.800781 L 81.921875 -110.339844 L 47.511719 -110.339844 L 47.511719 -144.308594 L 29.527344 -138.757812 L 29.527344 -110.339844 L 5.105469 -110.339844 L 5.105469 -94.800781 L 29.527344 -94.800781 L 29.527344 -12.875 C 29.527344 -2.664062 34.191406 2.886719 44.625 2.21875 L 86.363281 0 L 86.363281 -15.542969 Z M 47.511719 -13.097656 "/></g></g></g><g fill="#000000" fill-opacity="1"><g transform="translate(211.008529, 243.492435)"><g><path d="M 129.433594 0 L 129.433594 -163.179688 L 111.230469 -163.179688 L 111.230469 -94.132812 L 114.335938 -81.480469 L 109.007812 -81.480469 C 104.347656 -98.796875 89.472656 -112.5625 64.382812 -112.5625 C 32.414062 -112.5625 11.765625 -87.917969 11.765625 -55.28125 C 11.765625 -22.421875 32.414062 2.21875 64.382812 2.21875 C 89.472656 2.21875 104.347656 -11.542969 109.007812 -28.640625 L 114.335938 -28.640625 L 111.230469 -16.207031 L 111.230469 0 Z M 111.230469 -55.28125 C 111.230469 -25.753906 92.582031 -13.320312 69.710938 -13.320312 C 46.84375 -13.320312 29.972656 -25.753906 29.972656 -55.28125 C 29.972656 -84.585938 46.84375 -97.019531 69.710938 -97.019531 C 92.582031 -97.019531 111.230469 -84.585938 111.230469 -55.28125 Z M 111.230469 -55.28125 "/></g></g></g></svg>