<?xml version="1.0" encoding="UTF-8"?>
<svg xmlns="http://www.w3.org/2000/svg" xmlns:xlink="http://www.w3.org/1999/xlink" width="200px" height="200px" viewBox="0 0 200 200" version="1.1">
<g id="surface1">
<path style=" stroke:none;fill-rule:nonzero;fill:rgb(100%,8.627451%,8.627451%);fill-opacity:0.301961;" d="M 25.082031 140.328125 L 67.707031 140.328125 L 67.707031 132.039062 L 51.25 132.039062 L 51.25 60.285156 C 51.25 54.71875 48.644531 51.640625 43.199219 52.113281 L 29.460938 53.300781 L 29.460938 61.585938 L 41.65625 60.523438 L 41.65625 132.039062 L 25.082031 132.039062 Z M 25.082031 140.328125 "/>
<path style=" stroke:none;fill-rule:nonzero;fill:rgb(100%,8.627451%,8.627451%);fill-opacity:0.301961;" d="M 97.074219 133.34375 L 97.074219 89.769531 L 115.425781 89.769531 L 115.425781 81.480469 L 97.074219 81.480469 L 97.074219 63.363281 L 87.480469 66.324219 L 87.480469 81.480469 L 74.457031 81.480469 L 74.457031 89.769531 L 87.480469 89.769531 L 87.480469 133.460938 C 87.480469 138.90625 89.96875 141.867188 95.535156 141.511719 L 117.792969 140.328125 L 117.792969 132.039062 Z M 97.074219 133.34375 "/>
<path style=" stroke:none;fill-rule:nonzero;fill:rgb(100%,8.627451%,8.627451%);fill-opacity:0.301961;" d="M 192.035156 140.328125 L 192.035156 53.300781 L 182.328125 53.300781 L 182.328125 90.125 L 183.984375 96.871094 L 181.140625 96.871094 C 178.65625 87.636719 170.722656 80.296875 157.339844 80.296875 C 140.292969 80.296875 129.277344 93.4375 129.277344 110.84375 C 129.277344 128.371094 140.292969 141.511719 157.339844 141.511719 C 170.722656 141.511719 178.65625 134.171875 181.140625 125.054688 L 183.984375 125.054688 L 182.328125 131.683594 L 182.328125 140.328125 Z M 182.328125 110.84375 C 182.328125 126.59375 172.382812 133.222656 160.183594 133.222656 C 147.988281 133.222656 138.988281 126.59375 138.988281 110.84375 C 138.988281 95.214844 147.988281 88.585938 160.183594 88.585938 C 172.382812 88.585938 182.328125 95.214844 182.328125 110.84375 Z M 182.328125 110.84375 "/>
<path style=" stroke:none;fill-rule:nonzero;fill:rgb(100%,8.627451%,8.627451%);fill-opacity:0.501961;" d="M 19.847656 135.09375 L 62.476562 135.09375 L 62.476562 126.804688 L 46.015625 126.804688 L 46.015625 55.050781 C 46.015625 49.488281 43.410156 46.40625 37.964844 46.882812 L 24.230469 48.066406 L 24.230469 56.355469 L 36.425781 55.289062 L 36.425781 126.804688 L 19.847656 126.804688 Z M 19.847656 135.09375 "/>
<path style=" stroke:none;fill-rule:nonzero;fill:rgb(100%,8.627451%,8.627451%);fill-opacity:0.501961;" d="M 91.839844 128.109375 L 91.839844 84.535156 L 110.191406 84.535156 L 110.191406 76.246094 L 91.839844 76.246094 L 91.839844 58.132812 L 82.25 61.089844 L 82.25 76.246094 L 69.222656 76.246094 L 69.222656 84.535156 L 82.25 84.535156 L 82.25 128.230469 C 82.25 133.675781 84.734375 136.636719 90.300781 136.277344 L 112.5625 135.09375 L 112.5625 126.804688 Z M 91.839844 128.109375 "/>
<path style=" stroke:none;fill-rule:nonzero;fill:rgb(100%,8.627451%,8.627451%);fill-opacity:0.501961;" d="M 186.800781 135.09375 L 186.800781 48.066406 L 177.09375 48.066406 L 177.09375 84.890625 L 178.75 91.640625 L 175.910156 91.640625 C 173.421875 82.402344 165.488281 75.0625 152.109375 75.0625 C 135.058594 75.0625 124.046875 88.207031 124.046875 105.613281 C 124.046875 123.136719 135.058594 136.277344 152.109375 136.277344 C 165.488281 136.277344 173.421875 128.9375 175.910156 119.820312 L 178.75 119.820312 L 177.09375 126.453125 L 177.09375 135.09375 Z M 177.09375 105.613281 C 177.09375 121.359375 167.148438 127.992188 154.949219 127.992188 C 142.753906 127.992188 133.757812 121.359375 133.757812 105.613281 C 133.757812 89.984375 142.753906 83.351562 154.949219 83.351562 C 167.148438 83.351562 177.09375 89.984375 177.09375 105.613281 Z M 177.09375 105.613281 "/>
<path style=" stroke:none;fill-rule:nonzero;fill:rgb(0%,0%,0%);fill-opacity:1;" d="M 14.613281 129.863281 L 57.242188 129.863281 L 57.242188 121.574219 L 40.785156 121.574219 L 40.785156 49.820312 C 40.785156 44.253906 38.175781 41.175781 32.730469 41.648438 L 18.996094 42.832031 L 18.996094 51.121094 L 31.191406 50.054688 L 31.191406 121.574219 L 14.613281 121.574219 Z M 14.613281 129.863281 "/>
<path style=" stroke:none;fill-rule:nonzero;fill:rgb(0%,0%,0%);fill-opacity:1;" d="M 86.605469 122.878906 L 86.605469 79.300781 L 104.957031 79.300781 L 104.957031 71.015625 L 86.605469 71.015625 L 86.605469 52.898438 L 77.015625 55.859375 L 77.015625 71.015625 L 63.988281 71.015625 L 63.988281 79.300781 L 77.015625 79.300781 L 77.015625 122.996094 C 77.015625 128.441406 79.503906 131.402344 85.066406 131.046875 L 107.328125 129.863281 L 107.328125 121.574219 Z M 86.605469 122.878906 "/>
<path style=" stroke:none;fill-rule:nonzero;fill:rgb(0%,0%,0%);fill-opacity:1;" d="M 181.570312 129.863281 L 181.570312 42.832031 L 171.859375 42.832031 L 171.859375 79.660156 L 173.515625 86.40625 L 170.675781 86.40625 C 168.191406 77.171875 160.257812 69.828125 146.875 69.828125 C 129.824219 69.828125 118.8125 82.972656 118.8125 100.378906 C 118.8125 117.90625 129.824219 131.046875 146.875 131.046875 C 160.257812 131.046875 168.191406 123.707031 170.675781 114.585938 L 173.515625 114.585938 L 171.859375 121.21875 L 171.859375 129.863281 Z M 171.859375 100.378906 C 171.859375 116.128906 161.914062 122.757812 149.71875 122.757812 C 137.519531 122.757812 128.523438 116.128906 128.523438 100.378906 C 128.523438 84.75 137.519531 78.117188 149.71875 78.117188 C 161.914062 78.117188 171.859375 84.75 171.859375 100.378906 Z M 171.859375 100.378906 "/>
</g>
</svg>
