<?xml version="1.0" encoding="UTF-8"?>
<svg xmlns="http://www.w3.org/2000/svg" xmlns:xlink="http://www.w3.org/1999/xlink" width="40px" height="40px" viewBox="0 0 40 40" version="1.1">
<g id="surface1">
<path style=" stroke:none;fill-rule:nonzero;fill:rgb(94.509804%,25.490196%,41.568627%);fill-opacity:1;" d="M 37.332031 9.25 C 36.058594 9.816406 34.6875 10.199219 33.246094 10.371094 C 34.71875 9.488281 35.84375 8.097656 36.375 6.433594 C 35 7.25 33.480469 7.839844 31.859375 8.160156 C 30.558594 6.777344 28.710938 5.914062 26.667969 5.914062 C 22.738281 5.914062 19.554688 9.101562 19.554688 13.027344 C 19.554688 13.585938 19.617188 14.128906 19.738281 14.648438 C 13.828125 14.351562 8.589844 11.519531 5.078125 7.214844 C 4.46875 8.265625 4.117188 9.488281 4.117188 10.792969 C 4.117188 13.257812 5.371094 15.4375 7.28125 16.710938 C 6.113281 16.671875 5.015625 16.351562 4.058594 15.820312 C 4.058594 15.851562 4.058594 15.878906 4.058594 15.910156 C 4.058594 19.359375 6.507812 22.230469 9.765625 22.882812 C 9.167969 23.046875 8.539062 23.132812 7.890625 23.132812 C 7.433594 23.132812 6.984375 23.089844 6.550781 23.007812 C 7.457031 25.832031 10.085938 27.890625 13.195312 27.945312 C 10.761719 29.855469 7.695312 30.992188 4.363281 30.992188 C 3.789062 30.992188 3.222656 30.957031 2.664062 30.890625 C 5.8125 32.910156 9.550781 34.085938 13.566406 34.085938 C 26.652344 34.085938 33.800781 23.25 33.800781 13.851562 C 33.800781 13.542969 33.796875 13.234375 33.78125 12.929688 C 35.171875 11.925781 36.378906 10.675781 37.332031 9.25 Z M 37.332031 9.25 "/>
</g>
</svg>
